<?xml version="1.0" standalone="no"?>
<!DOCTYPE svg PUBLIC "-//W3C//DTD SVG 20010904//EN"
 "http://www.w3.org/TR/2001/REC-SVG-20010904/DTD/svg10.dtd">
<svg version="1.0" xmlns="http://www.w3.org/2000/svg"
 width="1000.000000pt" height="1080.000000pt" viewBox="0 0 1000.000000 1080.000000"
 preserveAspectRatio="xMidYMid meet">
<metadata>
Created by potrace 1.16, written by Peter Selinger 2001-2019
</metadata>
<g transform="translate(0.000000,1080.000000) scale(0.100000,-0.100000)"
fill="#000000" stroke="none">
<path d="M5921 7944 c-1 -54 20 -148 46 -199 57 -115 177 -196 296 -197 59 -1
161 24 172 42 3 5 -8 3 -24 -3 -26 -9 -32 -7 -68 26 -22 20 -73 62 -114 94
-41 31 -111 85 -156 120 -45 34 -84 63 -87 63 -11 0 -47 41 -56 63 -8 20 -9
19 -9 -9z"/>
<path d="M5580 7733 c28 -10 42 -26 30 -33 -7 -4 -11 -72 -11 -194 l-1 -187
76 -36 76 -36 0 -196 c0 -108 4 -191 8 -184 6 9 17 9 50 -3 24 -8 75 -19 115
-25 40 -6 80 -15 89 -20 12 -6 20 -4 26 7 7 13 11 14 17 4 4 -7 2 -16 -5 -20
-9 -5 -9 -9 -1 -14 6 -4 9 -19 6 -34 -5 -27 -5 -27 5 -3 6 14 9 30 6 37 -3 7
0 14 5 16 6 2 11 22 12 45 1 22 5 39 10 36 4 -2 7 3 7 11 0 21 2 20 58 -8 82
-41 152 -60 165 -46 9 10 9 11 0 6 -10 -6 -13 34 -13 184 0 150 3 190 13 184
8 -6 8 -3 -1 9 -8 9 -11 21 -7 27 4 6 -6 21 -22 33 -71 54 -142 131 -148 159
-12 54 -61 95 -184 154 -135 65 -188 85 -291 114 -69 18 -129 27 -90 13z"/>
<path d="M5856 6173 c-26 -54 -74 -146 -107 -205 -32 -58 -59 -108 -59 -110 0
-2 33 0 73 4 39 4 106 5 147 3 53 -3 65 -2 40 4 -22 5 -27 9 -15 10 l20 2 -20
9 c-18 8 -18 9 -2 9 10 1 16 5 13 9 -3 5 -6 85 -6 178 l-2 169 24 6 c17 5 13
7 -18 8 l-41 1 -47 -97z"/>
<path d="M2406 4149 c-38 -5 -70 -10 -72 -12 -6 -7 -164 -860 -160 -865 12
-11 200 -23 292 -18 131 7 193 21 282 61 93 43 166 115 214 212 47 94 61 165
56 282 -5 110 -28 168 -95 234 -98 99 -279 136 -517 106z m295 -164 c89 -45
126 -125 115 -246 -12 -136 -78 -244 -180 -296 -42 -22 -68 -28 -148 -31 -78
-3 -98 -2 -98 9 0 8 20 116 44 241 25 125 48 248 52 273 10 69 24 79 110 72
39 -3 87 -13 105 -22z"/>
<path d="M6511 4150 c-35 -5 -67 -13 -72 -17 -5 -6 -169 -843 -169 -867 0 -3
42 -6 93 -6 l92 0 23 128 c13 70 28 148 34 175 l10 47 52 0 c63 0 99 -23 115
-73 5 -17 15 -84 21 -147 7 -63 14 -118 17 -122 2 -5 47 -8 99 -8 93 0 94 0
89 23 -3 12 -12 81 -20 153 -15 139 -29 187 -64 218 -28 26 -27 30 15 45 51
19 114 78 137 131 27 60 27 145 0 196 -21 43 -93 97 -151 114 -50 15 -242 21
-321 10z m234 -154 c47 -20 69 -57 62 -106 -11 -84 -74 -130 -190 -138 l-69
-5 6 29 c3 16 13 70 22 119 9 50 18 96 20 103 5 17 106 16 149 -2z"/>
<path d="M3231 4098 c-6 -29 -42 -219 -81 -423 -38 -203 -72 -380 -75 -392
l-5 -23 274 0 275 0 11 58 c6 31 13 67 16 80 l4 22 -181 0 c-141 0 -180 3
-176 13 2 6 12 56 22 110 l17 97 159 0 c156 0 159 0 164 23 17 73 25 113 25
125 0 9 -38 12 -158 12 l-159 0 13 73 c25 132 0 117 193 117 l168 0 12 63 c7
34 14 70 17 80 5 16 -12 17 -260 17 l-265 0 -10 -52z"/>
<path d="M3925 4138 c-4 -14 -165 -862 -165 -872 0 -3 119 -6 265 -6 l265 0 4
23 c10 47 26 128 26 132 0 3 -76 5 -170 5 -130 0 -170 3 -170 13 1 6 31 171
68 365 l68 352 -93 0 c-66 0 -95 -4 -98 -12z"/>
<path d="M4565 4128 c-3 -13 -39 -203 -80 -423 -41 -220 -77 -410 -80 -422 -5
-23 -4 -23 89 -23 89 0 94 1 99 23 3 12 40 204 82 427 42 223 78 413 81 423 5
15 -4 17 -90 17 -91 0 -96 -1 -101 -22z"/>
<path d="M4854 4113 c3 -21 26 -204 51 -408 25 -203 48 -387 51 -408 l6 -38
111 3 110 3 228 440 228 440 -101 3 c-56 1 -105 -1 -109 -5 -11 -11 -250 -523
-285 -610 -16 -40 -32 -73 -36 -73 -5 0 -8 19 -8 43 0 23 -12 178 -27 345
l-27 302 -99 0 -99 0 6 -37z"/>
<path d="M5746 4133 c-2 -10 -39 -200 -81 -423 -42 -223 -79 -415 -82 -427
l-5 -23 275 0 275 0 14 78 14 77 -179 3 c-163 2 -178 4 -174 20 3 9 13 59 22
110 l17 92 159 0 158 0 11 58 c6 31 14 67 17 80 l5 22 -162 0 c-149 0 -161 1
-156 18 2 9 10 44 16 77 6 33 14 68 16 78 5 15 22 17 173 17 l167 0 15 80 16
80 -263 0 c-242 0 -263 -1 -268 -17z"/>
<path d="M7169 3887 l88 -264 -33 -174 c-19 -96 -34 -177 -34 -181 0 -5 42 -8
94 -8 l93 0 23 123 c47 260 33 226 182 429 74 101 160 218 191 261 l58 77
-113 0 -113 0 -82 -137 c-45 -76 -94 -162 -110 -190 -28 -53 -43 -66 -43 -37
0 8 -19 94 -42 190 l-42 174 -102 0 -102 0 87 -263z"/>
<path d="M0 400 l0 -400 5000 0 5000 0 0 400 0 400 -5000 0 -5000 0 0 -400z
m1395 106 c25 -11 33 -19 29 -30 -7 -19 -5 -19 -40 -1 -36 18 -55 19 -78 2
-28 -21 -9 -45 49 -62 87 -25 108 -74 54 -127 -29 -29 -33 -30 -90 -25 -68 6
-72 8 -64 29 5 13 12 14 40 5 50 -15 100 1 100 33 0 16 -8 28 -25 36 -87 40
-105 51 -108 67 -14 70 53 106 133 73z m587 -48 l3 -62 36 32 c20 18 45 32 55
32 14 0 9 -9 -21 -40 l-39 -40 42 -60 c40 -57 41 -60 20 -60 -16 0 -32 14 -53
45 -16 25 -33 45 -37 45 -5 0 -8 -20 -8 -45 0 -38 -3 -45 -20 -45 -19 0 -20 7
-20 130 0 122 1 130 20 130 16 0 19 -8 22 -62z m-1353 -24 c12 -15 21 -40 21
-55 0 -29 0 -29 -65 -29 -72 0 -83 -12 -44 -51 17 -17 30 -20 65 -16 43 4 59
-5 28 -17 -45 -17 -106 3 -123 41 -45 98 56 206 118 127z m456 3 c20 -16 28
-35 32 -69 5 -42 3 -50 -25 -78 -41 -41 -83 -41 -124 0 -28 28 -30 36 -25 78
9 82 84 119 142 69z m622 8 c30 -21 44 -75 32 -120 -25 -88 -143 -88 -168 0
-20 72 20 135 84 135 17 0 40 -7 52 -15z"/>
<path d="M986 424 c-50 -50 -21 -144 44 -144 48 0 80 50 66 104 -13 53 -75 75
-110 40z"/>
</g>
</svg>
